# This file uses centimeters as units for non-parametric coordinates.

mtllib house7.mtl
o house7
v -280.092590 -280.092590 280.092590
v 280.092590 -280.092590 280.092590
v 280.092590 280.092590 280.092590
v 280.092590 280.092590 -280.092590
v -280.092590 -280.092590 -280.092590
v 280.092590 -280.092590 -280.092590
v 0.000000 -353.776062 353.776062
v 0.000000 353.776062 353.776062
v 0.000000 353.776062 -353.776062
v 0.000000 -353.776062 -353.776062
v 353.776062 0.000000 353.776062
v 353.776062 353.776062 0.000000
v -353.776062 -353.776062 0.000000
v 353.776062 -353.776062 0.000000
v 0.000000 0.000000 483.159729
v 0.000000 483.159729 0.000000
v 0.000000 0.000000 -483.159729
v 0.000000 -483.159729 0.000000
v 483.159729 0.000000 0.000000
v -166.145844 -329.427094 329.427094
v 166.145844 -329.427094 329.427094
v 166.145844 329.427094 329.427094
v 166.145844 329.427094 -329.427094
v -166.145844 -329.427094 -329.427094
v 166.145844 -329.427094 -329.427094
v 329.427094 -166.145844 329.427094
v 329.427094 166.145844 329.427094
v 329.427094 329.427094 166.145844
v 329.427094 329.427094 -166.145844
v 329.427094 166.145844 -329.427094
v 329.427094 -166.145844 -329.427094
v -329.427094 -329.427094 -166.145844
v -329.427094 -329.427094 166.145844
v 329.427094 -329.427094 -166.145844
v 329.427094 -329.427094 166.145844
v 0.000000 -192.881958 450.694458
v 192.881958 0.000000 450.694458
v 0.000000 192.881958 450.694458
v 0.000000 450.694458 192.881958
v 192.881958 450.694458 0.000000
v 0.000000 450.694458 -192.881958
v 0.000000 192.881958 -450.694458
v 0.000000 -192.881958 -450.694458
v 0.000000 -450.694458 -192.881958
v 192.881958 -450.694458 0.000000
v 0.000000 -450.694458 192.881958
v -192.881958 -450.694458 0.000000
v 450.694458 -192.881958 0.000000
v 450.694458 192.881958 0.000000
v 450.694458 0.000000 192.881958
v 179.513885 -179.513885 420.138885
v 179.513885 179.513885 420.138885
v -179.513885 -179.513885 420.138885
v 179.513885 420.138885 179.513885
v 179.513885 420.138885 -179.513885
v 179.513885 179.513885 -420.138885
v 179.513885 -179.513885 -420.138885
v -179.513885 -179.513885 -420.138885
v 179.513885 -420.138885 -179.513885
v 179.513885 -420.138885 179.513885
v -179.513885 -420.138885 179.513885
v -179.513885 -420.138885 -179.513885
v 420.138885 -179.513885 -179.513885
v 420.138885 179.513885 -179.513885
v 420.138885 179.513885 179.513885
v 420.138885 -179.513885 179.513885
v 0.000000 -92.699516 -467.556854
v -182.335892 -141.618515 -426.589172
v -94.020439 -82.576790 -452.878235
v -382.702972 -241.381683 -173.997025
v -307.636658 -216.474701 -307.636658
v -238.204956 -174.280289 -384.625183
v -258.604034 -172.461273 372.281799
v -313.624786 -202.644058 313.624786
v -386.138519 -235.703964 174.503311
v -412.891724 -255.638214 0.000000
v 0.000000 -25.741230 478.827057
v -184.433411 -113.451675 431.383514
v 95.483681 185.771469 -434.441895
v 71.120827 0.000000 -471.188904
v 57.571133 128.878052 -450.946442
v 444.229401 -37.982132 -190.053497
v 347.333588 -43.960453 -347.333588
v 188.540695 -58.296844 -440.771576
v 76.045570 -46.601696 -462.188110
v 350.377106 169.233215 -294.804443
v 409.499786 128.484512 -214.627518
v 431.095276 115.145081 -184.307312
v 414.532959 93.441101 -218.993195
v 443.790253 -40.562099 -189.861374
v 472.729736 0.000000 -61.966454
v 466.125885 37.671860 -60.299576
v 419.627380 -39.500038 -229.987198
v 354.974854 169.910767 287.206055
v 381.875000 0.000000 307.129059
v 367.578918 90.298973 296.540985
v 434.914734 92.705864 185.978317
v 449.082428 71.533218 125.560127
v 462.106293 0.000000 125.082138
v 471.847717 37.512100 28.477612
v 478.487671 0.000000 27.757551
v 472.349426 34.677654 28.423203
v 451.589569 187.563904 0.000000
v 471.975464 37.321175 27.932787
v 402.947083 118.012421 229.162781
v 183.703278 123.256485 429.714630
v 336.813873 115.741875 336.813873
v 86.000473 114.137505 448.640472
v 73.248215 0.000000 470.830811
v 89.894051 67.866180 456.110931
v 0.000000 192.168106 450.814606
v 84.175850 113.967209 448.993927
v 86.171181 112.108818 448.967987
v 67.526146 45.639515 463.877502
vt 0.584434 0.337181
vt 0.584434 0.419580
vt 0.666833 0.419580
vt 0.666833 0.337181
vt 0.584434 0.501980
vt 0.666833 0.501980
vt 0.502035 0.419580
vt 0.502035 0.501980
vt 0.502035 0.337181
vt 0.502035 0.584379
vt 0.584434 0.584379
vt 0.337232 0.584578
vt 0.254833 0.584578
vt 0.254833 0.666978
vt 0.337232 0.666978
vt 0.172434 0.584578
vt 0.172434 0.666978
vt 0.254833 0.502179
vt 0.172434 0.502179
vt 0.090034 0.666978
vt 0.090034 0.584578
vt 0.007635 0.584578
vt 0.007635 0.666978
vt 0.090034 0.502179
vt 0.007635 0.502179
vt 0.172434 0.419780
vt 0.090034 0.419780
vt 0.254833 0.419780
vt 0.337232 0.502179
vt 0.337232 0.419780
vt 0.766562 0.419509
vt 0.749167 0.387249
vt 0.749167 0.419509
vt 0.007635 0.337380
vt 0.007635 0.419780
vt 0.090034 0.337380
vt 0.172434 0.337380
vt 0.172437 0.057843
vt 0.254837 0.059098
vt 0.254837 0.007584
vt 0.172438 0.007584
vt 0.254833 0.337380
vt 0.337232 0.337380
vt 0.007639 0.007584
vt 0.007639 0.053588
vt 0.090038 0.055978
vt 0.090038 0.007584
vt 0.712772 0.337110
vt 0.666768 0.337110
vt 0.666768 0.419509
vt 0.376164 0.089983
vt 0.419635 0.120306
vt 0.419635 0.089983
vt 0.337236 0.063590
vt 0.337236 0.007584
vt 0.419635 0.007584
vt 0.584434 0.666778
vt 0.502035 0.666778
vt 0.666833 0.584379
vt 0.666833 0.666778
vt 0.913966 0.545736
vt 0.913966 0.584307
vt 0.996365 0.584307
vt 0.996365 0.501908
vt 0.913966 0.501908
vt 0.888455 0.528334
vt 0.831567 0.501908
vt 0.831567 0.532291
vt 0.666768 0.584307
vt 0.749167 0.584307
vt 0.749167 0.501908
vt 0.666768 0.501908
vt 0.791965 0.501908
vt 0.795061 0.460514
vt 0.810935 0.535118
vt 0.804807 0.584307
vt 0.930932 0.232223
vt 0.914031 0.254782
vt 0.977400 0.254782
vt 0.996365 0.666707
vt 0.913966 0.666707
vt 0.914031 0.337181
vt 0.996431 0.337181
vt 0.996431 0.254782
vt 0.666768 0.666707
vt 0.749167 0.666707
vt 0.809765 0.666707
vt 0.996431 0.007584
vt 0.914031 0.007584
vt 0.914031 0.089983
vt 0.996431 0.089983
vt 0.831632 0.089983
vt 0.831632 0.007584
vt 0.914031 0.154948
vt 0.934953 0.153839
vt 0.996431 0.150580
vt 0.914031 0.153764
vt 0.931596 0.215902
vt 0.914031 0.225236
vt 0.666833 0.007584
vt 0.666833 0.089983
vt 0.749233 0.089983
vt 0.749233 0.007584
vt 0.831632 0.172382
vt 0.858104 0.172382
vt 0.819774 0.172382
vt 0.749233 0.172382
vt 0.778197 0.172382
vt 0.831632 0.254782
vt 0.831632 0.337181
vt 0.858590 0.189674
vt 0.819256 0.188769
vt 0.831632 0.252510
vt 0.819072 0.187614
vt 0.819015 0.188859
vt 0.749233 0.254782
vt 0.749233 0.337181
vt 0.776002 0.204933
vt 0.749233 0.214936
vt 0.666833 0.254782
vt 0.690040 0.254782
vt 0.690360 0.216173
vt 0.690723 0.172382
vt 0.666833 0.172382
vt 0.666833 0.229784
vt 0.725195 0.227508
vt 0.584434 0.254782
vt 0.502035 0.254782
vt 0.584434 0.228959
vt 0.540650 0.222078
vt 0.539791 0.222866
vt 0.540610 0.222978
vt 0.502035 0.089983
vt 0.584434 0.089983
vt 0.584434 0.007584
vt 0.502035 0.007584
vt 0.502035 0.161386
vt 0.584434 0.172382
vt 0.531399 0.192397
vt 0.502035 0.172382
vt 0.502035 0.254477
vt 0.541529 0.202466
vt 0.533326 0.172382
vn -0.308751 -0.672560 -0.672560
vn -0.350845 -0.868226 -0.350845
vn -0.598096 -0.569441 -0.563931
vn -0.672560 -0.672560 -0.308751
vn -0.410392 -0.911909 -0.000000
vn -0.707107 -0.707107 0.000000
vn -0.172889 -0.984941 0.000000
vn -0.188084 -0.895634 -0.403068
vn -0.202943 -0.692392 -0.692392
vn -0.188084 -0.895634 0.403068
vn -0.350845 -0.868226 0.350845
vn -0.308751 0.672560 0.672560
vn -0.350845 0.868226 0.350845
vn -0.577350 0.577350 0.577350
vn -0.672560 0.672560 0.308751
vn -0.410392 0.911909 0.000000
vn -0.707107 0.707107 -0.000000
vn 0.000000 1.000000 0.000000
vn 0.000000 0.911909 0.410392
vn -0.672560 0.672560 -0.308751
vn -0.350845 0.868226 -0.350845
vn -0.577350 0.577350 -0.577350
vn -0.308751 0.672560 -0.672560
vn -0.000000 0.911909 -0.410392
vn -0.000000 0.707107 -0.707107
vn 0.410392 0.911909 -0.000000
vn 0.350845 0.868226 -0.350845
vn 0.350845 0.868226 0.350845
vn 0.000000 0.707107 0.707107
vn 0.358436 0.633767 0.685466
vn 0.296071 0.178652 0.938310
vn 0.507415 0.388556 0.769126
vn 0.351632 0.351632 0.867588
vn 0.358118 0.633933 -0.685478
vn 0.593059 0.595191 -0.542244
vn 0.672224 0.672411 -0.309804
vn 0.707107 0.707107 0.000000
vn 0.759400 0.511306 -0.402340
vn 0.852296 0.523061 -0.000000
vn 0.672224 0.672410 0.309804
vn 0.592813 0.595195 0.542509
vn 0.578623 0.512049 0.634825
vn 0.759079 0.511386 0.402844
vn 0.506680 0.389128 -0.769322
vn 0.294909 0.176831 -0.939020
vn 0.351632 0.351632 -0.867588
vn 0.578330 0.512640 -0.634614
vn -0.332599 -0.700821 0.631053
vn -0.193400 -0.606320 0.771345
vn -0.680053 -0.651496 0.336276
vn -0.572996 -0.581732 0.577289
vn -0.347626 -0.512078 0.785451
vn -0.182662 -0.398770 0.898675
vn -0.182367 -0.341200 0.922131
vn -0.177355 -0.163351 0.970496
vn -0.170467 0.000212 0.985363
vn -0.170468 -0.166598 0.971178
vn -0.165982 0.000284 0.986129
vn -0.177356 -0.163351 0.970496
vn -0.351275 0.351652 0.867725
vn 0.020425 0.332993 0.942708
vn -0.056146 0.165720 0.984573
vn 0.172536 0.166284 0.970866
vn -0.166400 0.165885 0.972005
vn -0.171902 0.172995 0.969805
vn -0.405541 0.188205 0.894492
vn -0.833484 -0.184591 0.520798
vn -0.888908 -0.294352 0.350998
vn -0.749548 -0.427241 0.505612
vn -0.603042 -0.522188 0.603042
vn -0.672586 0.309357 0.672255
vn -0.693052 0.202942 0.691732
vn -0.841429 0.353109 0.409038
vn -0.948624 0.316404 0.000426
vn -0.840378 0.181104 0.510849
vn -0.838082 0.186070 0.512831
vn -0.920360 0.179233 0.347582
vn -0.837074 -0.184394 0.515079
vn -0.895759 -0.183816 0.404756
vn -0.837012 -0.182659 0.515798
vn -0.671932 0.310718 -0.672281
vn -0.866331 0.329957 -0.374965
vn -0.996874 -0.075299 -0.023910
vn -0.984617 0.051094 0.167091
vn -0.922131 0.182367 -0.341200
vn -0.970750 0.171237 -0.168290
vn -0.984715 0.053522 -0.165744
vn -0.926029 -0.376590 0.025494
vn -0.970356 -0.171380 0.170406
vn -0.971947 -0.168474 -0.164121
vn -0.985198 -0.167442 -0.036705
vn -0.971814 -0.165798 -0.167594
vn -0.971145 -0.168675 -0.168599
vn -0.971145 -0.168675 -0.168599
vn -0.971145 -0.168675 -0.168599
vn -0.883371 -0.309080 -0.352314
vn -0.971682 -0.163577 -0.170520
vn -0.971682 -0.163564 -0.170530
vn -0.971682 -0.163564 -0.170530
vn -0.971683 -0.163551 -0.170540
vn -0.971120 -0.168125 0.169293
vn -0.920349 -0.182418 -0.345951
vn -0.969666 -0.174275 -0.171392
vn -0.632792 -0.332566 -0.699267
vn -0.796148 -0.326334 -0.509563
vn -0.768731 -0.200324 -0.607390
vn -0.836841 -0.194238 -0.511828
vn -0.787433 0.001132 -0.616400
vn -0.850451 0.095997 -0.517221
vn -0.834003 -0.192664 -0.517029
vn -0.834003 -0.192664 -0.517029
vn -0.834003 -0.192664 -0.517029
vn -0.835563 -0.184259 -0.517575
vn -0.386098 -0.386098 -0.837769
vn -0.185384 -0.348008 -0.918980
vn -0.317322 -0.179682 -0.931140
vn -0.171955 -0.171090 -0.970134
vn -0.171955 -0.171090 -0.970134
vn -0.171955 -0.171090 -0.970134
vn -0.386098 0.386098 -0.837769
vn -0.017857 0.333396 -0.942618
vn -0.052448 0.165754 -0.984772
vn -0.348090 0.183068 -0.919413
vn -0.167027 -0.163650 -0.972276
vn -0.173313 -0.167170 -0.970575
vn -0.169638 -0.164796 -0.971630
vn -0.174957 -0.169651 -0.969850
vn -0.176311 -0.171505 -0.969278
vn -0.171965 -0.171098 -0.970131
vn -0.165982 -0.002464 -0.986126
vn -0.163607 -0.168601 -0.972012
vn -0.165430 0.081504 -0.982848
vn -0.172877 -0.163485 -0.971281
vn -0.172875 -0.163487 -0.971281
vn -0.172862 -0.163491 -0.971282
s 1
g polySurface11 polySurface9 polySurface7 polySurface5 polySurface3 polySurface1 pCube1
usemtl surfaceShader1SG
f 22/1/1 54/2/2 3/4/3
f 3/4/3 54/2/2 28/3/4
f 54/2/2 40/5/5 28/3/4
f 28/3/4 40/5/5 12/6/6
f 40/5/5 54/2/2 16/8/7
f 16/8/7 54/2/2 39/7/8
f 54/2/2 22/1/1 39/7/8
f 39/7/8 22/1/1 8/9/9
f 41/10/10 55/11/11 16/8/7
f 16/8/7 55/11/11 40/5/5
f 25/12/12 59/13/13 6/15/14
f 6/15/14 59/13/13 34/14/15
f 59/13/13 45/16/16 34/14/15
f 34/14/15 45/16/16 14/17/17
f 45/16/16 59/13/13 18/19/18
f 18/19/18 59/13/13 44/18/19
f 35/20/20 60/21/21 2/23/22
f 2/23/22 60/21/21 21/22/23
f 60/21/21 46/24/24 21/22/23
f 21/22/23 46/24/24 7/25/25
f 46/24/24 60/21/21 18/19/18
f 18/19/18 60/21/21 45/16/16
f 60/21/21 35/20/20 45/16/16
f 45/16/16 35/20/20 14/17/17
f 47/26/26 61/27/27 18/19/18
f 18/19/18 61/27/27 46/24/24
f 44/18/19 62/28/28 18/19/18
f 18/19/18 62/28/28 47/26/26
f 59/13/13 25/12/12 44/18/19
f 44/18/19 25/12/12 10/29/29
f 62/28/28 44/18/19 24/30/30
f 24/30/30 44/18/19 10/29/29
f 68/31/31 72/32/32 58/33/33
f 20/35/34 61/27/27 1/34/35
f 1/34/35 61/27/27 33/36/36
f 61/27/27 47/26/26 33/36/36
f 33/36/36 47/26/26 13/37/37
f 61/27/27 20/35/34 46/24/24
f 46/24/24 20/35/34 7/25/25
f 75/39/38 33/40/36 76/38/39
f 76/38/39 33/40/36 13/41/37
f 62/28/28 32/42/40 47/26/26
f 47/26/26 32/42/40 13/37/37
f 32/42/40 62/28/28 5/43/41
f 5/43/41 62/28/28 24/30/30
f 71/45/42 70/46/43 5/44/41
f 5/44/41 70/46/43 32/47/40
f 5/49/41 24/50/30 71/48/42
f 71/48/42 24/50/30 72/32/32
f 24/50/30 58/33/33 72/32/32
f 70/46/43 76/38/39 32/47/40
f 32/47/40 76/38/39 13/41/37
f 73/51/44 78/52/45 53/53/46
f 74/54/47 1/55/35 75/39/38
f 75/39/38 1/55/35 33/40/36
f 1/55/35 74/54/47 20/56/34
f 74/54/47 73/51/44 20/56/34
f 73/51/44 53/53/46 20/56/34
f 55/11/11 41/10/10 23/57/48
f 23/57/48 41/10/10 9/58/49
f 55/11/11 29/59/50 40/5/5
f 40/5/5 29/59/50 12/6/6
f 29/59/50 55/11/11 4/60/51
f 4/60/51 55/11/11 23/57/48
f 23/63/48 9/64/49 56/62/52
f 56/62/52 9/64/49 79/61/53
f 79/61/53 9/64/49 42/65/54
f 42/65/55 17/67/56 81/66/57
f 81/66/57 17/67/56 80/68/58
f 42/65/54 81/66/59 79/61/53
f 57/70/60 43/71/61 25/69/12
f 25/69/12 43/71/61 10/72/29
f 58/33/33 24/50/30 43/71/61
f 43/71/61 24/50/30 10/72/29
f 67/73/62 69/74/63 43/71/61
f 69/74/63 68/31/31 43/71/61
f 43/71/61 68/31/31 58/33/33
f 43/71/61 85/75/64 67/73/62
f 67/73/62 85/75/64 17/67/56
f 85/75/64 80/68/58 17/67/56
f 43/71/61 57/70/60 85/75/65
f 85/75/65 57/70/60 84/76/66
f 87/77/67 64/78/68 86/79/69
f 23/63/48 56/62/52 4/80/51
f 4/80/51 56/62/52 30/81/70
f 30/84/70 86/79/69 4/83/51
f 64/78/68 29/82/50 86/79/69
f 29/82/50 4/83/51 86/79/69
f 31/86/71 57/70/60 6/85/14
f 6/85/14 57/70/60 25/69/12
f 83/87/72 84/76/66 31/86/71
f 31/86/71 84/76/66 57/70/60
f 34/89/15 63/90/73 6/88/14
f 6/88/14 63/90/73 31/91/71
f 63/90/73 34/89/15 48/92/74
f 48/92/74 34/89/15 14/93/17
f 82/94/75 93/95/76 90/97/77
f 90/97/77 93/95/76 63/90/73
f 63/90/73 93/95/76 31/91/71
f 93/95/76 83/96/72 31/91/71
f 89/98/78 88/99/79 87/77/80
f 87/77/80 88/99/79 64/78/68
f 26/101/81 66/102/82 2/100/22
f 2/100/22 66/102/82 35/103/20
f 66/102/82 48/92/74 35/103/20
f 35/103/20 48/92/74 14/93/17
f 19/104/83 91/105/84 48/92/74
f 91/105/84 90/97/77 48/92/74
f 90/97/77 63/90/73 48/92/74
f 50/107/85 99/108/86 66/102/82
f 66/102/82 99/108/86 48/92/74
f 19/104/83 48/92/74 101/106/87
f 101/106/87 48/92/74 99/108/86
f 64/78/68 49/109/88 29/82/50
f 29/82/50 49/109/88 12/110/6
f 88/99/79 92/111/89 64/78/68
f 64/78/68 92/111/89 49/109/88
f 101/106/87 102/114/90 19/104/83
f 103/113/91 19/104/83 104/112/92
f 104/112/92 19/104/83 102/114/90
s off
f 104/112/93 102/114/94 100/115/95
s 1
f 65/116/96 28/117/4 49/109/88
f 49/109/88 28/117/4 12/110/6
s 17
f 104/112/97 100/115/98 103/113/99
f 103/113/99 100/115/98 98/118/100
s 1
f 49/109/88 92/111/101 103/113/91
f 91/105/84 19/104/83 92/111/101
f 92/111/101 19/104/83 103/113/91
f 97/119/102 65/116/96 98/118/103
f 49/109/88 103/113/91 65/116/96
f 98/118/103 65/116/96 103/113/91
f 27/120/104 94/121/105 107/125/106
f 94/121/105 96/122/107 107/125/106
f 107/125/106 96/122/107 11/124/108
f 96/122/107 95/123/109 11/124/108
s off
f 94/121/110 105/126/111 96/122/112
s 1
f 97/119/102 105/126/113 65/116/96
f 65/116/96 105/126/113 94/121/105
f 50/107/85 66/102/82 95/123/109
f 11/124/108 95/123/109 26/101/81
f 26/101/81 95/123/109 66/102/82
f 27/120/104 3/4/3 94/121/105
f 28/117/4 65/116/96 3/4/3
f 3/4/3 65/116/96 94/121/105
f 52/127/114 38/128/115 22/1/1
f 22/1/1 38/128/115 8/9/9
f 27/120/104 52/127/114 3/4/3
f 3/4/3 52/127/114 22/1/1
f 107/125/106 106/129/116 27/120/104
f 27/120/104 106/129/116 52/127/114
s off
f 113/130/117 112/131/118 108/132/119
s 1
f 51/134/120 21/135/23 36/133/121
f 36/133/121 21/135/23 7/136/25
f 53/53/46 36/133/121 20/56/34
f 20/56/34 36/133/121 7/136/25
f 77/137/122 36/133/121 78/52/45
f 78/52/45 36/133/121 53/53/46
f 21/135/23 51/134/120 2/100/22
f 2/100/22 51/134/120 26/101/81
f 51/134/120 37/138/123 26/101/81
f 26/101/81 37/138/123 11/124/108
s 22
f 15/140/124 111/141/125 114/139/126
f 114/139/126 111/141/125 110/142/127
f 111/141/125 112/131/128 110/142/127
f 112/131/128 113/130/129 110/142/127
s 1
f 15/140/130 114/139/131 109/143/132
f 52/127/114 106/129/116 38/128/115
f 38/128/115 106/129/116 111/141/133
f 106/129/116 108/132/134 111/141/133
f 111/141/133 108/132/134 112/131/135
f 15/140/130 109/143/132 77/137/122
f 51/134/120 36/133/121 37/138/123
f 37/138/123 36/133/121 109/143/132
f 36/133/121 77/137/122 109/143/132
