# This file uses centimeters as units for non-parametric coordinates.

mtllib house4.mtl
o house4
v 449.082428 71.533218 125.560127
v 471.847717 37.512100 28.477612
v 472.349426 34.677654 28.423203
v 478.487671 0.000000 27.757551
v 462.106293 0.000000 125.082138
vt 0.778197 0.172382
vt 0.776002 0.204933
vt 0.819015 0.188859
vt 0.819072 0.187614
vt 0.819774 0.172382
vn -0.970368 -0.175562 -0.166022
vn -0.971171 -0.172233 -0.164810
vn -0.971436 -0.171124 -0.164406
vn -0.971961 -0.168904 -0.163597
vn -0.971960 -0.168906 -0.163597
s 1
g polySurface10 polySurface7 polySurface5 polySurface3 polySurface1 pCube1
usemtl surfaceShader1SG
f 1/2/1 2/3/2 5/1/3
f 2/3/2 3/4/4 5/1/3
f 5/1/3 3/4/4 4/5/5
